{
	"asset":{
		"generator":"Khronos glTF Blender I/O v4.5.48",
		"version":"2.0"
	},
	"scene":0,
	"scenes":[
		{
			"name":"Scene",
			"nodes":[
				0,
				1,
				2
			]
		}
	],
	"nodes":[
		{
			"name":"Camera",
			"rotation":[
				0.483536034822464,
				0.33687159419059753,
				-0.20870360732078552,
				0.7804827094078064
			],
			"translation":[
				7.481131553649902,
				5.34366512298584,
				6.5076398849487305
			]
		},
		{
			"name":"Lamp",
			"rotation":[
				0.16907575726509094,
				0.7558802962303162,
				-0.27217137813568115,
				0.5709475874900818
			],
			"translation":[
				4.076245307922363,
				5.903861999511719,
				-1.0054539442062378
			]
		},
		{
			"mesh":0,
			"name":"textured_mesh",
			"rotation":[
				0.7071067690849304,
				0,
				0,
				0.7071068286895752
			],
			"scale":[
				2.368276357650757,
				2.368276357650757,
				2.368276357650757
			],
			"translation":[
				-1.6709758043289185,
				-0.6984462738037109,
				-0.9776884317398071
			]
		}
	],
	"materials":[
		{
			"doubleSided":true,
			"name":"Material.001",
			"pbrMetallicRoughness":{
				"baseColorTexture":{
					"index":0
				},
				"metallicFactor":0,
				"roughnessFactor":0.5
			}
		}
	],
	"meshes":[
		{
			"name":"textured_mesh",
			"primitives":[
				{
					"attributes":{
						"POSITION":0,
						"NORMAL":1,
						"TEXCOORD_0":2
					},
					"indices":3,
					"material":0
				}
			]
		}
	],
	"textures":[
		{
			"sampler":0,
			"source":0
		}
	],
	"images":[
		{
			"mimeType":"image/jpeg",
			"name":"textured_mesh",
			"uri":"textured_mesh.jpg"
		}
	],
	"accessors":[
		{
			"bufferView":0,
			"componentType":5126,
			"count":26791,
			"max":[
				0.6804479956626892,
				0.18453499674797058,
				0.9998549818992615
			],
			"min":[
				-0.7433480024337769,
				-0.2616490125656128,
				-0.9942790269851685
			],
			"type":"VEC3"
		},
		{
			"bufferView":1,
			"componentType":5126,
			"count":26791,
			"type":"VEC3"
		},
		{
			"bufferView":2,
			"componentType":5126,
			"count":26791,
			"type":"VEC2"
		},
		{
			"bufferView":3,
			"componentType":5123,
			"count":120000,
			"type":"SCALAR"
		}
	],
	"bufferViews":[
		{
			"buffer":0,
			"byteLength":321492,
			"byteOffset":0,
			"target":34962
		},
		{
			"buffer":0,
			"byteLength":321492,
			"byteOffset":321492,
			"target":34962
		},
		{
			"buffer":0,
			"byteLength":214328,
			"byteOffset":642984,
			"target":34962
		},
		{
			"buffer":0,
			"byteLength":240000,
			"byteOffset":857312,
			"target":34963
		}
	],
	"samplers":[
		{
			"magFilter":9729,
			"minFilter":9987
		}
	],
	"buffers":[
		{
			"byteLength":1097312,
			"uri":"Untitled.bin"
		}
	]
}
